<?xml version="1.0" encoding="UTF-8"?>
<!-- Created with Inkscape (http://www.inkscape.org/) -->
<svg width="35.05mm" height="26.458mm" version="1.1" viewBox="0 0 35.05 26.458" xmlns="http://www.w3.org/2000/svg">
 <g transform="translate(1.9844 -47.691)">
  <g transform="matrix(.17184 0 0 .17184 -1.6434 39.496)" fill="#fff" stroke-linecap="round" stroke-linejoin="round">
   <path d="m0 47.691a1.9846 1.9846 0 0 0-1.9844 1.9844v50a1.9844 1.9844 0 0 0 1.9844 1.9844 1.9844 1.9844 0 0 0 1.9844-1.9844v-48.016h48.016a1.9844 1.9844 0 0 0 1.9844-1.9844 1.9844 1.9844 0 0 0-1.9844-1.9844z" color="#000000" style="-inkscape-stroke:none"/>
   <path d="m150 47.691a1.9844 1.9844 0 0 0-1.9844 1.9844 1.9844 1.9844 0 0 0 1.9844 1.9844h48.016v48.016a1.9844 1.9844 0 0 0 1.9844 1.9844 1.9844 1.9844 0 0 0 1.9844-1.9844v-50a1.9846 1.9846 0 0 0-1.9844-1.9844z" color="#000000" style="-inkscape-stroke:none"/>
   <path d="m200 147.69a1.9844 1.9844 0 0 0-1.9844 1.9844v48.016h-48.016a1.9844 1.9844 0 0 0-1.9844 1.9844 1.9844 1.9844 0 0 0 1.9844 1.9844h50a1.9846 1.9846 0 0 0 1.9844-1.9844v-50a1.9844 1.9844 0 0 0-1.9844-1.9844z" color="#000000" style="-inkscape-stroke:none"/>
   <path d="m0 147.69a1.9844 1.9844 0 0 0-1.9844 1.9844v50a1.9846 1.9846 0 0 0 1.9844 1.9844h50a1.9844 1.9844 0 0 0 1.9844-1.9844 1.9844 1.9844 0 0 0-1.9844-1.9844h-48.016v-48.016a1.9844 1.9844 0 0 0-1.9844-1.9844z" color="#000000" style="-inkscape-stroke:none"/>
  </g>
 </g>
</svg>
