<?xml version="1.0" encoding="UTF-8"?>
<svg width="150" height="87.006" version="1.1" viewBox="0 0 39.688 23.02" xmlns="http://www.w3.org/2000/svg">
    <g transform="translate(586.74 291.45)">
        <path d="m-586.74-291.45v23.02h2.4308v-23.02zm3.9626 0v23.02h0.8539v-23.02zm6.981 0c-1.2615 0-2.2076 0.27168-2.8383 0.81507-0.61572 0.5287-0.92356 1.2851-0.92356 2.2691 0 0.66088 0.0826 1.2116 0.24775 1.6522 0.18021 0.4259 0.5031 0.86646 0.96864 1.3217l3.9646 3.7891c0.34541 0.33779 0.57069 0.66086 0.67581 0.96927 0.12014 0.29372 0.18018 0.69758 0.18018 1.2116 0 0.49933-0.18772 0.89587-0.56316 1.1896-0.37543 0.29372-0.93109 0.4406-1.667 0.4406-0.73585 0-1.2914-0.14688-1.6669-0.4406-0.37478-0.29321-0.56249-0.70354-0.56316-1.2309v-0.26692h-6e-5v-1.6965h-1.5769v12.997h1.5769v-8.4331c0.48789 0.21906 1.0886 0.34665 1.8031 0.38216v8.0509h0.85397v-8.0509c0.7162-0.0356 1.3181-0.16375 1.8066-0.3838v8.4347h1.5733v-11.194h-1e-3c-6e-3 -0.62902-0.0874-1.15-0.24668-1.5606-0.16519-0.44059-0.46555-0.89584-0.90105-1.3658l-4.0322-3.7891c-0.36041-0.3231-0.59319-0.63148-0.69831-0.92521-0.10512-0.29372-0.15773-0.69764-0.15773-1.2117s0.17274-0.91787 0.51814-1.2116c0.36042-0.29372 0.89355-0.4406 1.5994-0.4406s1.2314 0.14688 1.5768 0.4406c0.36042 0.29373 0.54065 0.70496 0.54065 1.2337v1.9606h1.5769v-1.8725c0-2.0561-1.2089-3.0841-3.6267-3.0841zm5.4462 0v23.02h0.85396v-23.02zm3.1679 0v23.02h2.1259v-8.3781h1.5008c0.86878 0 1.5803-0.14514 2.135-0.43506v8.8132h1.4639v-11.524h-0.0173c0-3e-3 1.2e-4 -5e-3 1.2e-4 -8e-3v-2.0274c0-1.3366-0.6082-2.17-1.8246-2.5004 1.0662-0.36042 1.5993-1.1789 1.5993-2.4554v-1.3516c0-0.99115-0.30784-1.7645-0.92356-2.3202-0.6007-0.55565-1.4867-0.83348-2.6581-0.83348h-1.2755zm8.2554 0v23.02h0.85397v-23.02zm3.4741 0v23.02h2.4308v-19.497c0-0.46972 0.27782-0.9541 0.83347-1.4532 0.55565-0.49907 1.1638-0.74862 1.8246-0.74862s1.1113 0.1541 1.3516 0.46235c0.2553 0.30825 0.38298 0.74131 0.38298 1.2991v19.938h1.5768v-19.938c0-2.055-1.1038-3.0826-3.3113-3.0826-1.0879 0-1.9738 0.42679-2.6581 1.2797v-1.2797h-1.5769zm-9.6036 1.3516h1.2755c0.64575 0 1.1413 0.1577 1.4867 0.47307 0.3454 0.31536 0.51814 0.75838 0.51814 1.329v1.3516c0 0.58568-0.17274 1.0512-0.51814 1.3966-0.33038 0.34541-0.82594 0.51814-1.4867 0.51814h-1.2755zm0 6.1947h1.5008c0.64575 0 1.1414 0.18022 1.4868 0.54064 0.34541 0.34541 0.51808 0.8034 0.51808 1.3741v2.0274c0 1.2014-0.6683 1.8021-2.0048 1.8021h-1.5008z"
              stroke-width=".2533"/>
        <text transform="scale(.26458)" fill="#000000" font-family="sans-serif" font-size="40px"
              style="line-height:1.25;shape-inside:url(#rect12042);white-space:pre" xml:space="preserve"/>
    </g>
</svg>
