<?xml version="1.0" encoding="UTF-8"?>
<!-- Created with Inkscape (http://www.inkscape.org/) -->
<svg width="150" height="81.529" version="1.1" viewBox="0 0 39.688 21.571" xmlns="http://www.w3.org/2000/svg">
 <g transform="translate(586.74 291.45)">
  <path transform="matrix(.26458 0 0 .26458 -586.74 -291.45)" d="m0 0v81.529h9.1875v-81.529zm14.977 0v81.529h3.2285v-81.529zm26.385 0c-4.7678 0-8.3427 1.0283-10.727 3.082-2.3271 1.9982-3.4902 4.8572-3.4902 8.5762 0 2.4978 0.31136 4.5789 0.93555 6.2441 0.68111 1.6097 1.9006 3.2754 3.6602 4.9961l14.984 14.32c1.3055 1.2767 2.1574 2.4965 2.5547 3.6621 0.45407 1.1101 0.68164 2.6373 0.68164 4.5801 0 1.8872-0.70992 3.3859-2.1289 4.4961-1.4189 1.1101-3.5196 1.666-6.3008 1.666-2.7812 0-4.8799-0.55589-6.2988-1.666-1.4165-1.1082-2.1264-2.6592-2.1289-4.6523v-7.4199h-5.9609v43.645h5.9609v-26.396c1.844 0.82794 4.1142 1.3111 6.8145 1.4453v24.951h3.2285v-24.951c2.7069-0.13455 4.9817-0.61949 6.8281-1.4512v26.402h5.9453v-36.83h-0.0039c-0.02268-2.3774-0.32964-4.3465-0.93164-5.8984-0.62434-1.6652-1.7603-3.3859-3.4062-5.1621l-15.238-14.322c-1.3622-1.2212-2.2433-2.3859-2.6406-3.4961-0.3973-1.1101-0.5957-2.6373-0.5957-4.5801 0-1.9428 0.65354-3.468 1.959-4.5781 1.3622-1.1101 3.3773-1.666 6.0449-1.666s4.6535 0.55589 5.959 1.666c1.3622 1.1102 2.043 2.6638 2.043 4.6621v7.4102h5.9609v-7.0762c0-7.771-4.5688-11.658-13.707-11.658zm20.584 0v81.529h3.2285v-81.529zm11.975 0v81.529h8.0332v-26.188h5.6738c3.2836 0 5.9719-0.54877 8.0684-1.6445v27.832h5.5332v-38.078h-0.0664c0-0.01134 2e-3 -0.01991 2e-3 -0.03125v-7.6621c0-5.0515-2.299-8.2005-6.8965-9.4492 4.0299-1.3622 6.0449-4.4568 6.0449-9.2812v-5.1074c0-3.7461-1.1631-6.6695-3.4902-8.7695-2.2704-2.1001-5.6197-3.1504-10.047-3.1504zm31.201 0v81.529h3.2266v-81.529zm13.131 0v81.529h9.1856v-68.213c0-1.7753 1.0503-3.6059 3.1504-5.4922 2.1001-1.8862 4.3991-2.8301 6.8965-2.8301 2.4974 0 4.2012 0.58301 5.1094 1.748 0.96491 1.165 1.4473 2.802 1.4473 4.9102v69.877h5.959v-69.877c0-7.767-4.172-11.652-12.516-11.652-4.1116 0-7.4606 1.6144-10.047 4.8379v-4.8379zm-36.299 5.1094h4.8223c2.4406 0 4.3137 0.59516 5.6191 1.7871 1.3054 1.1919 1.957 2.8666 1.957 5.0234v5.1094c0 2.2136-0.65158 3.9719-1.957 5.2773-1.2487 1.3055-3.1217 1.959-5.6191 1.959h-4.8223zm0 23.412h5.6738c2.4406 0 4.3137 0.6827 5.6191 2.0449 1.3055 1.3055 1.957 3.0365 1.957 5.1934v7.6621c0 4.5407-2.5246 6.8105-7.5762 6.8105h-5.6738z" stroke-width=".95737"/>
  <text transform="scale(.26458)" fill="#000000" font-family="sans-serif" font-size="40px" style="line-height:1.25;shape-inside:url(#rect12042);white-space:pre" xml:space="preserve"/>
 </g>
</svg>
